<mxfile host="app.diagrams.net" modified="2022-05-02T01:37:00.087Z" agent="5.0 (Windows)" etag="0hV9wkiNWqNWwTyKoq0a" version="17.5.0" type="github">
  <diagram id="C5RBs43oDa-KdzZeNtuy" name="Page-1">
    <mxGraphModel dx="1406" dy="703" grid="1" gridSize="10" guides="1" tooltips="1" connect="1" arrows="1" fold="1" page="1" pageScale="1" pageWidth="827" pageHeight="1169" math="0" shadow="0">
      <root>
        <mxCell id="WIyWlLk6GJQsqaUBKTNV-0" />
        <mxCell id="WIyWlLk6GJQsqaUBKTNV-1" parent="WIyWlLk6GJQsqaUBKTNV-0" />
        <mxCell id="p3TkI4AledNXhQf-X-2R-2" style="edgeStyle=none;curved=1;rounded=0;orthogonalLoop=1;jettySize=auto;html=1;endArrow=open;startSize=14;endSize=14;sourcePerimeterSpacing=8;targetPerimeterSpacing=8;" edge="1" parent="WIyWlLk6GJQsqaUBKTNV-1" source="p3TkI4AledNXhQf-X-2R-0" target="p3TkI4AledNXhQf-X-2R-1">
          <mxGeometry relative="1" as="geometry" />
        </mxCell>
        <mxCell id="p3TkI4AledNXhQf-X-2R-0" value="INICIO" style="ellipse;whiteSpace=wrap;html=1;hachureGap=4;" vertex="1" parent="WIyWlLk6GJQsqaUBKTNV-1">
          <mxGeometry x="270" y="40" width="160" height="100" as="geometry" />
        </mxCell>
        <mxCell id="p3TkI4AledNXhQf-X-2R-4" value="" style="edgeStyle=none;curved=1;rounded=0;orthogonalLoop=1;jettySize=auto;html=1;endArrow=open;startSize=14;endSize=14;sourcePerimeterSpacing=8;targetPerimeterSpacing=8;" edge="1" parent="WIyWlLk6GJQsqaUBKTNV-1" source="p3TkI4AledNXhQf-X-2R-1" target="p3TkI4AledNXhQf-X-2R-3">
          <mxGeometry relative="1" as="geometry" />
        </mxCell>
        <mxCell id="p3TkI4AledNXhQf-X-2R-1" value="N1, N2" style="ellipse;whiteSpace=wrap;html=1;hachureGap=4;" vertex="1" parent="WIyWlLk6GJQsqaUBKTNV-1">
          <mxGeometry x="270" y="200" width="160" height="100" as="geometry" />
        </mxCell>
        <mxCell id="p3TkI4AledNXhQf-X-2R-6" style="edgeStyle=none;curved=1;rounded=0;orthogonalLoop=1;jettySize=auto;html=1;endArrow=open;startSize=14;endSize=14;sourcePerimeterSpacing=8;targetPerimeterSpacing=8;" edge="1" parent="WIyWlLk6GJQsqaUBKTNV-1" source="p3TkI4AledNXhQf-X-2R-3" target="p3TkI4AledNXhQf-X-2R-5">
          <mxGeometry relative="1" as="geometry" />
        </mxCell>
        <mxCell id="p3TkI4AledNXhQf-X-2R-3" value="&lt;span style=&quot;font-size: 12.0pt ; font-family: &amp;#34;calibri&amp;#34; , sans-serif ; color: black&quot; lang=&quot;ES-TRAD&quot;&gt;p = (n1 + n2)&lt;/span&gt;" style="rounded=0;whiteSpace=wrap;html=1;hachureGap=4;" vertex="1" parent="WIyWlLk6GJQsqaUBKTNV-1">
          <mxGeometry x="270" y="380" width="160" height="80" as="geometry" />
        </mxCell>
        <mxCell id="p3TkI4AledNXhQf-X-2R-12" value="SI" style="edgeStyle=none;curved=1;rounded=0;orthogonalLoop=1;jettySize=auto;html=1;endArrow=open;startSize=14;endSize=14;sourcePerimeterSpacing=8;targetPerimeterSpacing=8;" edge="1" parent="WIyWlLk6GJQsqaUBKTNV-1" source="p3TkI4AledNXhQf-X-2R-5" target="p3TkI4AledNXhQf-X-2R-11">
          <mxGeometry x="-0.1667" y="17" relative="1" as="geometry">
            <Array as="points">
              <mxPoint x="90" y="570" />
            </Array>
            <mxPoint as="offset" />
          </mxGeometry>
        </mxCell>
        <mxCell id="p3TkI4AledNXhQf-X-2R-14" style="edgeStyle=none;curved=1;rounded=0;orthogonalLoop=1;jettySize=auto;html=1;endArrow=open;startSize=14;endSize=14;sourcePerimeterSpacing=8;targetPerimeterSpacing=8;" edge="1" parent="WIyWlLk6GJQsqaUBKTNV-1" source="p3TkI4AledNXhQf-X-2R-5" target="p3TkI4AledNXhQf-X-2R-13">
          <mxGeometry relative="1" as="geometry">
            <Array as="points">
              <mxPoint x="590" y="610" />
            </Array>
          </mxGeometry>
        </mxCell>
        <mxCell id="p3TkI4AledNXhQf-X-2R-5" value="p%2==0)" style="rounded=0;whiteSpace=wrap;html=1;hachureGap=4;" vertex="1" parent="WIyWlLk6GJQsqaUBKTNV-1">
          <mxGeometry x="290" y="544.5" width="140" height="80" as="geometry" />
        </mxCell>
        <mxCell id="p3TkI4AledNXhQf-X-2R-18" style="edgeStyle=none;curved=1;rounded=0;orthogonalLoop=1;jettySize=auto;html=1;endArrow=open;startSize=14;endSize=14;sourcePerimeterSpacing=8;targetPerimeterSpacing=8;" edge="1" parent="WIyWlLk6GJQsqaUBKTNV-1" source="p3TkI4AledNXhQf-X-2R-11" target="p3TkI4AledNXhQf-X-2R-17">
          <mxGeometry relative="1" as="geometry">
            <Array as="points">
              <mxPoint x="210" y="890" />
            </Array>
          </mxGeometry>
        </mxCell>
        <mxCell id="p3TkI4AledNXhQf-X-2R-11" value="par = p * 0.1" style="rounded=0;whiteSpace=wrap;html=1;hachureGap=4;" vertex="1" parent="WIyWlLk6GJQsqaUBKTNV-1">
          <mxGeometry x="40" y="700" width="140" height="80" as="geometry" />
        </mxCell>
        <mxCell id="p3TkI4AledNXhQf-X-2R-13" value="&lt;span style=&quot;font-size: 12.0pt ; font-family: &amp;#34;calibri&amp;#34; , sans-serif ; color: black&quot; lang=&quot;ES-TRAD&quot;&gt;impar = p * 0.05&lt;/span&gt;" style="rounded=0;whiteSpace=wrap;html=1;hachureGap=4;" vertex="1" parent="WIyWlLk6GJQsqaUBKTNV-1">
          <mxGeometry x="490" y="700" width="140" height="80" as="geometry" />
        </mxCell>
        <mxCell id="p3TkI4AledNXhQf-X-2R-15" value="NO" style="text;html=1;align=center;verticalAlign=middle;resizable=0;points=[];autosize=1;strokeColor=none;fillColor=none;hachureGap=4;" vertex="1" parent="WIyWlLk6GJQsqaUBKTNV-1">
          <mxGeometry x="525" y="600" width="30" height="20" as="geometry" />
        </mxCell>
        <mxCell id="p3TkI4AledNXhQf-X-2R-17" value="FIN" style="rounded=0;whiteSpace=wrap;html=1;hachureGap=4;" vertex="1" parent="WIyWlLk6GJQsqaUBKTNV-1">
          <mxGeometry x="310" y="870" width="140" height="80" as="geometry" />
        </mxCell>
        <mxCell id="p3TkI4AledNXhQf-X-2R-19" value="" style="edgeStyle=none;orthogonalLoop=1;jettySize=auto;html=1;rounded=0;endArrow=open;startSize=14;endSize=14;sourcePerimeterSpacing=8;targetPerimeterSpacing=8;curved=1;" edge="1" parent="WIyWlLk6GJQsqaUBKTNV-1">
          <mxGeometry width="120" relative="1" as="geometry">
            <mxPoint x="570" y="790" as="sourcePoint" />
            <mxPoint x="460" y="910" as="targetPoint" />
            <Array as="points">
              <mxPoint x="550" y="890" />
            </Array>
          </mxGeometry>
        </mxCell>
      </root>
    </mxGraphModel>
  </diagram>
</mxfile>
